# xmcd
# 
# Track frame offsets:
#     150
#     13045
#     23510
#     44370
#     55607
#     67565
#     79442
#     92150
#     111845
#     125887
#     135565
#     149722
#     169385
#     183220
#     207412
#     221340
# 
# Disc length: 3080
# 
# Revision: 16
# Processed by: cddbd v1.5.2PL0 Copyright (c) Steve Scherf et al.
# Submitted via: fre:ac v1.0.31
# 
DISCID=e40c0610
DTITLE=Johnny Cash - Murder
DYEAR=2000
DGENRE=Country
TTITLE0=Folsom Prison Blues [mono]
TTITLE1=Delia's Gone [mono]
TTITLE2=Mister Garfield
TTITLE3=Orleans Parish Prison [live]
TTITLE4=When It's Springtime in Alaska (It's Forty Below) [f. June Carter] [mono]
TTITLE5=The Sound of Laughter
TTITLE6=Cocaine Blues [live]
TTITLE7=Hardin Wouldn't Run [mono]
TTITLE8=The Long Black Veil
TTITLE9=Austin Prison
TTITLE10=Joe Bean
TTITLE11=Going to Memphis
TTITLE12=Don't Take Your Guns to Town
TTITLE13=Highway Patrolman
TTITLE14=Jacob Green [live]
TTITLE15=The Wall
EXTD=YEAR: 2000
EXTT0=
EXTT1=
EXTT2=
EXTT3=
EXTT4=
EXTT5=
EXTT6=
EXTT7=
EXTT8=
EXTT9=
EXTT10=
EXTT11=
EXTT12=
EXTT13=
EXTT14=
EXTT15=
PLAYORDER=
